<svg width="1920" height="1010" viewBox="0 0 1920 1010" fill="none" xmlns="http://www.w3.org/2000/svg">
<g filter="url(#filter0_d)">
<path fill-rule="evenodd" clip-rule="evenodd" d="M-1.99963 1013C-1.99963 1013 328 461 864 577C1400 693 1912 16.9993 1918 1.00023C1924 -14.9999 1922 1011 1922 1011L-1.99963 1013Z" fill="#2F1CE4"/>
<path fill-rule="evenodd" clip-rule="evenodd" d="M-1.99963 1013C-1.99963 1013 328 461 864 577C1400 693 1912 16.9993 1918 1.00023C1924 -14.9999 1922 1011 1922 1011L-1.99963 1013Z" fill="url(#paint0_linear)"/>
<path fill-rule="evenodd" clip-rule="evenodd" d="M-1.99963 1013C-1.99963 1013 328 461 864 577C1400 693 1912 16.9993 1918 1.00023C1924 -14.9999 1922 1011 1922 1011L-1.99963 1013Z" stroke="black"/>
</g>
<defs>
<filter id="filter0_d" x="-6.88159" y="0.314941" width="1933.7" height="1021.19" filterUnits="userSpaceOnUse" color-interpolation-filters="sRGB">
<feFlood flood-opacity="0" result="BackgroundImageFix"/>
<feColorMatrix in="SourceAlpha" type="matrix" values="0 0 0 0 0 0 0 0 0 0 0 0 0 0 0 0 0 0 127 0"/>
<feOffset dy="4"/>
<feGaussianBlur stdDeviation="2"/>
<feColorMatrix type="matrix" values="0 0 0 0 0 0 0 0 0 0 0 0 0 0 0 0 0 0 0.25 0"/>
<feBlend mode="normal" in2="BackgroundImageFix" result="effect1_dropShadow"/>
<feBlend mode="normal" in="SourceGraphic" in2="effect1_dropShadow" result="shape"/>
</filter>
<linearGradient id="paint0_linear" x1="960.5" y1="-17" x2="960.5" y2="1014" gradientUnits="userSpaceOnUse">
<stop stop-color="white"/>
<stop offset="1" stop-color="white" stop-opacity="0"/>
</linearGradient>
</defs>
</svg>
